<svg id="Layer_1" data-name="Layer 1" xmlns="http://www.w3.org/2000/svg" xmlns:xlink="http://www.w3.org/1999/xlink" viewBox="0 0 357.89 431.64"><defs><style>.cls-1{fill:url(#linear-gradient);}.cls-2{fill:url(#linear-gradient-2);}.cls-3{fill:url(#linear-gradient-3);}.cls-4{fill:url(#linear-gradient-4);}.cls-5{fill:url(#linear-gradient-5);}.cls-6{fill:url(#linear-gradient-6);}.cls-7{fill:url(#linear-gradient-7);}.cls-8{fill:url(#linear-gradient-8);}</style><linearGradient id="linear-gradient" x1="67.12" y1="112.35" x2="172.57" y2="6.91" gradientUnits="userSpaceOnUse"><stop offset="0" stop-color="#e75528"/><stop offset="0.15" stop-color="#e95d29"/><stop offset="0.38" stop-color="#ef742a"/><stop offset="0.64" stop-color="#f7942d"/></linearGradient><linearGradient id="linear-gradient-2" x1="154.52" y1="127.59" x2="5.24" y2="-130.97" gradientUnits="userSpaceOnUse"><stop offset="0" stop-color="#e75528"/><stop offset="0.1" stop-color="#d53e2b"/><stop offset="0.21" stop-color="#be202e"/><stop offset="0.43" stop-color="#96202e"/></linearGradient><linearGradient id="linear-gradient-3" x1="347.18" y1="385.04" x2="347.18" y2="363.63" gradientUnits="userSpaceOnUse"><stop offset="0" stop-color="#414042"/><stop offset="0.24" stop-color="#4e4e50"/><stop offset="0.53" stop-color="#565658"/><stop offset="1" stop-color="#58595b"/></linearGradient><linearGradient id="linear-gradient-4" x1="316.53" y1="398.58" x2="316.53" y2="388.58" xlink:href="#linear-gradient-3"/><linearGradient id="linear-gradient-5" x1="260.73" y1="398.48" x2="260.73" y2="327.04" xlink:href="#linear-gradient-3"/><linearGradient id="linear-gradient-6" x1="177.01" y1="398.99" x2="177.01" y2="332.98" xlink:href="#linear-gradient-3"/><linearGradient id="linear-gradient-7" x1="112.5" y1="398.99" x2="112.5" y2="365.99" xlink:href="#linear-gradient-3"/><linearGradient id="linear-gradient-8" x1="40.5" y1="385.09" x2="40.5" y2="304.1" xlink:href="#linear-gradient-3"/></defs><path class="cls-1" d="M179,75.07v74.57A149.15,149.15,0,0,1,29.84.56V.51H104.4A74.58,74.58,0,0,0,179,75.07Z" transform="translate(0 -0.51)"/><path class="cls-2" d="M253.53,149.94H328.1a149.13,149.13,0,0,1-298.26,0V.51A149.08,149.08,0,0,0,104.4,129.69h0v20.25a74.57,74.57,0,0,0,149.13,0Z" transform="translate(0 -0.51)"/><g id="Travit"><polygon class="cls-3" points="346.48 365.41 357.89 365.41 357.89 375.41 346.48 375.41 346.48 431.52 336.48 431.52 336.48 338.56 346.48 338.56 346.48 365.41"/><rect class="cls-4" x="311.53" y="365.53" width="10" height="66.11"/><polygon class="cls-5" points="296.44 365.42 265.61 431.54 255.78 431.54 225.02 365.56 225.08 365.54 234.83 365.54 260.68 420.98 260.72 420.96 286.62 365.42 296.44 365.42"/><path class="cls-6" d="M200,422.68a33.05,33.05,0,1,1,0-47.4l0,0V366h10v66H200V422.7Zm0-23.7a23,23,0,1,0-23,23A23,23,0,0,0,200,399Z" transform="translate(0 -0.51)"/><path class="cls-7" d="M106,375.3a32.86,32.86,0,0,1,23-9.36v10a23,23,0,0,0-23,23V432H96V365.93h10Z" transform="translate(0 -0.51)"/><polygon class="cls-8" points="81 338.62 81 348.62 45.5 348.62 45.5 431.57 35.5 431.57 35.5 348.62 0 348.62 0 338.62 81 338.62"/></g></svg>