<svg id="Layer_1" data-name="Layer 1" xmlns="http://www.w3.org/2000/svg" xmlns:xlink="http://www.w3.org/1999/xlink" viewBox="0 0 768.26 298.56"><defs><style>.cls-1{fill:url(#linear-gradient);}.cls-2{fill:url(#linear-gradient-2);}.cls-3{fill:#fff;}</style><linearGradient id="linear-gradient" x1="37.28" y1="111.85" x2="142.73" y2="6.4" gradientUnits="userSpaceOnUse"><stop offset="0" stop-color="#e75528"/><stop offset="0.15" stop-color="#e95d29"/><stop offset="0.38" stop-color="#ef742a"/><stop offset="0.64" stop-color="#f7942d"/></linearGradient><linearGradient id="linear-gradient-2" x1="124.68" y1="127.09" x2="-24.6" y2="-131.47" gradientUnits="userSpaceOnUse"><stop offset="0" stop-color="#e75528"/><stop offset="0.1" stop-color="#d53e2b"/><stop offset="0.21" stop-color="#be202e"/><stop offset="0.43" stop-color="#96202e"/></linearGradient></defs><path class="cls-1" d="M0,0H74.57a74.58,74.58,0,0,0,74.56,74.57v74.56A149.15,149.15,0,0,1,0,.05Z" transform="translate(0 0)"/><path class="cls-2" d="M0,149.43V0A149.06,149.06,0,0,0,74.57,129.18h0v20.25a74.57,74.57,0,0,0,149.13,0h74.56A149.13,149.13,0,0,1,0,149.43Z" transform="translate(0 0)"/><g id="Travit"><polygon class="cls-3" points="753.91 124.52 768.26 124.52 768.26 137.09 753.91 137.09 753.91 207.65 741.34 207.65 741.34 90.76 753.91 90.76 753.91 124.52"/><rect class="cls-3" x="709.97" y="124.67" width="12.57" height="83.13"/><polygon class="cls-3" points="691.01 124.53 652.23 207.67 639.87 207.67 601.19 124.71 601.27 124.68 613.53 124.68 646.03 194.39 646.08 194.37 678.65 124.53 691.01 124.53"/><path class="cls-3" d="M569.76,136.33V124.68h12.57v83H569.76V195.93l0,0a41.55,41.55,0,1,1,0-59.6Zm0,29.77a28.92,28.92,0,1,0-28.92,29A28.94,28.94,0,0,0,569.73,166.1Z" transform="translate(0 0)"/><path class="cls-3" d="M451.54,136.33a41.34,41.34,0,0,1,28.92-11.77v12.61a29,29,0,0,0-28.92,28.93v41.57H439V124.55h12.57Z" transform="translate(0 0)"/><polygon class="cls-3" points="420.11 90.83 420.11 103.41 375.47 103.41 375.47 207.71 362.89 207.71 362.89 103.41 318.26 103.41 318.26 90.83 420.11 90.83"/></g></svg>