<svg id="Layer_1" data-name="Layer 1" xmlns="http://www.w3.org/2000/svg" viewBox="0 0 357.88 431.51"><defs><style>.cls-1{fill:#fff;}</style></defs><path class="cls-1" d="M253.53,149.94H328.1a149.14,149.14,0,0,1-298.27,0V.51A149.07,149.07,0,0,0,104.4,129.69h0v20.25a74.57,74.57,0,0,0,149.13,0Z" transform="translate(0 -0.51)"/><path class="cls-1" d="M179,75.07v74.57a148.42,148.42,0,0,1-74.57-19.95h0A149.07,149.07,0,0,1,29.83.51H104.4A74.56,74.56,0,0,0,179,75.07Z" transform="translate(0 -0.51)"/><g id="Travit"><polygon class="cls-1" points="346.48 365.28 357.88 365.28 357.88 375.28 346.48 375.28 346.48 431.4 336.48 431.4 336.48 338.44 346.48 338.44 346.48 365.28"/><rect class="cls-1" x="311.53" y="365.4" width="10" height="66.11"/><polygon class="cls-1" points="296.44 365.3 265.61 431.41 255.78 431.41 225.01 365.44 225.08 365.41 234.83 365.42 260.68 420.86 260.72 420.84 286.61 365.3 296.44 365.3"/><path class="cls-1" d="M200,375.17v-9.25h10v66H200v-9.33l0,0a33.05,33.05,0,1,1,0-47.41Zm0,23.7a23,23,0,1,0-23,23A23,23,0,0,0,200,398.87Z" transform="translate(0 -0.51)"/><path class="cls-1" d="M106,375.19a32.83,32.83,0,0,1,23-9.37v10a23,23,0,0,0-23,23v33.05H96V365.81h10Z" transform="translate(0 -0.51)"/><polygon class="cls-1" points="81 338.49 81 348.49 45.5 348.49 45.5 431.45 35.5 431.45 35.5 348.49 0 348.49 0 338.49 81 338.49"/></g></svg>