
        <svg xmlns="http://www.w3.org/2000/svg" xmlns:xlink="http://www.w3.org/1999/xlink" version="1.1" width="3300" height="2754.244005470411" viewBox="0 0 3300 2754.244005470411">
			
			<g transform="scale(15.000000000000002) translate(10, 10)">
				<defs id="SvgjsDefs1176"/><g id="SvgjsG1177" featureKey="symbolGroupContainer" transform="matrix(2.1875,0,0,2.1875,45,0)" fill="#000"><circle cx="25" cy="25" r="25"/></g><g id="SvgjsG1178" featureKey="symbolFeature-0" transform="matrix(0.7777777777777778,0,0,0.7777777777777778,61.111111111111114,15.51111125946045)" fill="#ffffff"><g xmlns="http://www.w3.org/2000/svg"><path d="M51.8,14.7c0-1.4-1.1-2.5-2.5-2.5H19.6c-1.4,0-2.5,1.1-2.5,2.5v3.5h34.6V14.7z"/><path d="M77.7,51c3.6,0,6.9,1,9.7,2.8V42.3c0-1.4-1.1-2.5-2.5-2.5H68V28c0-0.7-0.5-1.2-1.1-1.3V13.4h-4.5v1.8h2.6   v11.6c-0.5,0.2-0.9,0.6-0.9,1.2v11.9h-9l-3.4-19.2H17.2l-2.3,19.2c-2.1,1.6-3.6,3.8-4.4,5.2c-0.4,0.7-0.3,1.7,0.3,2.3l0.8,0.8   c4-2.9,8.9-4.7,14.2-4.7c12.6,0,22.9,9.7,23.8,22.1h10.1C61.4,57.2,68.8,51,77.7,51z M34.5,37.7c0,0.9-0.8,1.7-1.7,1.7H21.3   c-1,0-1.8-0.8-1.7-1.8l0.7-12c0.1-0.9,0.8-1.6,1.7-1.6h10.8c0.9,0,1.7,0.8,1.7,1.7V37.7z M50,47.5h-3.8c-0.5,0-1-0.2-1.4-0.5   l-6.4-4.9c-0.6-0.4-0.9-1.1-0.9-1.9V26.4c0-1.3,1.1-2.4,2.4-2.4h7.5c1.2,0,2.2,0.9,2.3,2l2.7,18.7C52.5,46.2,51.4,47.5,50,47.5z"/><path d="M45,64c-0.2-1.5-0.6-2.9-1.1-4.2l1.2-1.2c-0.7-1.5-1.5-3-2.5-4.3L41,54.8c-0.9-1.1-1.9-2.2-3.1-3.1l0.4-1.6   c-1.3-1-2.8-1.8-4.3-2.5L33,48.9c-1.3-0.5-2.7-0.9-4.2-1.1l-0.4-1.6C27.6,46,26.8,46,25.9,46c-0.8,0-1.7,0.1-2.5,0.2L23,47.7   c-1.5,0.2-2.9,0.6-4.2,1.1l-1.2-1.2c-1.5,0.7-3,1.5-4.3,2.5l0.4,1.6c-1.1,0.9-2.2,1.9-3.1,3.1l-1.6-0.4c-1,1.3-1.8,2.8-2.5,4.3   l1.2,1.2C7.4,61.1,7,62.5,6.8,64l-1.6,0.4C5.1,65.2,5,66,5,66.9c0,0.8,0.1,1.7,0.2,2.5l1.6,0.4C7,71.2,7.4,72.6,7.9,74l-1.2,1.2   c0.7,1.5,1.5,3,2.5,4.3l1.6-0.4c0.9,1.1,1.9,2.2,3.1,3.1l-0.4,1.6c1.3,1,2.8,1.8,4.3,2.5l1.2-1.2c1.3,0.5,2.7,0.9,4.2,1.1l0.4,1.6   c0.8,0.1,1.6,0.2,2.5,0.2c0.8,0,1.7-0.1,2.5-0.2l0.4-1.6c1.5-0.2,2.9-0.6,4.2-1.1l1.2,1.2c1.5-0.7,3-1.5,4.3-2.5L38,82   c1.1-0.9,2.2-1.9,3.1-3.1l1.6,0.4c1-1.3,1.8-2.8,2.5-4.3L43.9,74c0.5-1.3,0.9-2.7,1.1-4.2l1.6-0.4c0.1-0.8,0.2-1.6,0.2-2.5   c0-0.8-0.1-1.7-0.2-2.5L45,64z M25.9,77.1c-5.6,0-10.2-4.6-10.2-10.2c0-5.6,4.6-10.2,10.2-10.2s10.2,4.6,10.2,10.2   C36.1,72.5,31.5,77.1,25.9,77.1z"/><path d="M94.9,72.2c0.1-0.7,0.1-1.3,0.1-2c0-0.7-0.1-1.3-0.1-2l-1.3-0.3c-0.2-1.2-0.5-2.3-0.9-3.3l1-0.9   c-0.5-1.2-1.2-2.4-2-3.4l-1.3,0.4c-0.7-0.9-1.5-1.7-2.4-2.4l0.4-1.3c-1.1-0.8-2.2-1.5-3.4-2l-0.9,1c-1.1-0.4-2.2-0.7-3.3-0.9   l-0.3-1.3c-0.7-0.1-1.3-0.1-2-0.1c-0.7,0-1.3,0.1-2,0.1L76,55c-1.2,0.2-2.3,0.5-3.3,0.9l-0.9-1c-1.2,0.5-2.4,1.2-3.4,2l0.4,1.3   c-0.9,0.7-1.7,1.5-2.4,2.4L65,60.2c-0.8,1.1-1.5,2.2-2,3.4l1,0.9c-0.4,1.1-0.7,2.2-0.9,3.3l-1.3,0.3c-0.1,0.7-0.1,1.3-0.1,2   c0,0.7,0.1,1.3,0.1,2l1.3,0.3c0.2,1.2,0.5,2.3,0.9,3.3l-1,0.9c0.5,1.2,1.2,2.4,2,3.4l1.3-0.4c0.7,0.9,1.5,1.7,2.4,2.4l-0.4,1.3   c1.1,0.8,2.2,1.5,3.4,2l0.9-1c1.1,0.4,2.2,0.7,3.3,0.9l0.3,1.3c0.7,0.1,1.3,0.1,2,0.1c0.7,0,1.3-0.1,2-0.1l0.3-1.3   c1.2-0.2,2.3-0.5,3.3-0.9l0.9,1c1.2-0.5,2.4-1.2,3.4-2L88,82.3c0.9-0.7,1.7-1.5,2.4-2.4l1.3,0.4c0.8-1.1,1.5-2.2,2-3.4l-1-0.9   c0.4-1.1,0.7-2.2,0.9-3.3L94.9,72.2z M78.3,78.8c-4.7,0-8.6-3.8-8.6-8.6c0-4.7,3.8-8.6,8.6-8.6c4.7,0,8.6,3.8,8.6,8.6   C86.9,75,83.1,78.8,78.3,78.8z"/><circle cx="25.9" cy="66.9" r="4.7"/><circle cx="78.3" cy="70.2" r="4.1"/></g></g><g id="SvgjsG1179" featureKey="nameFeature-0" transform="matrix(0.5578924984332257,0,0,0.5578924984332257,-1.8968342818538688,122.49497461749172)" fill="#000"><path d="M31.22 12 c0.36 0 0.6 0.24 0.6 0.6 l0 26.8 c0 0.36 -0.24 0.6 -0.6 0.6 l-2.54 0 c-0.36 0 -0.6 -0.24 -0.6 -0.6 l0 -20.3 l-8.58 20.44 c-0.12 0.32 -0.36 0.46 -0.68 0.46 l-2.48 0 c-0.32 0 -0.56 -0.14 -0.68 -0.46 l-8.52 -20.3 l0 20.16 c0 0.36 -0.24 0.6 -0.6 0.6 l-2.54 0 c-0.36 0 -0.6 -0.24 -0.6 -0.6 l0 -26.8 c0 -0.36 0.24 -0.6 0.6 -0.6 l3.18 0 c0.32 0 0.6 0.12 0.72 0.4 l9.7 23.38 l9.66 -23.38 c0.12 -0.28 0.4 -0.4 0.72 -0.4 l3.24 0 z M61.771 39.32 c0.16 0.4 -0.04 0.68 -0.48 0.68 l-2.58 0 c-0.32 0 -0.54 -0.12 -0.68 -0.48 l-1.98 -5.38 l-12.84 0 l-1.98 5.38 c-0.14 0.36 -0.36 0.48 -0.68 0.48 l-2.58 0 c-0.44 0 -0.64 -0.28 -0.48 -0.68 l10.16 -26.84 c0.12 -0.32 0.4 -0.48 0.72 -0.48 l2.52 0 c0.32 0 0.6 0.16 0.72 0.48 z M44.431 30.84 l10.4 0 l-5.2 -14.16 z M87.962 12 c0.36 0 0.6 0.24 0.6 0.6 l0 26.8 c0 0.32 -0.2 0.56 -0.5 0.6 l-3.28 0 c-0.32 0 -0.56 -0.12 -0.72 -0.4 l-12.88 -22.08 l0 21.88 c0 0.36 -0.24 0.6 -0.6 0.6 l-2.54 0 c-0.36 0 -0.6 -0.24 -0.6 -0.6 l0 -26.8 c0 -0.34 0.2 -0.56 0.52 -0.6 l3.26 0 c0.32 0 0.56 0.12 0.72 0.4 l12.88 22.06 l0 -21.86 c0 -0.36 0.24 -0.6 0.6 -0.6 l2.54 0 z M118.513 39.32 c0.16 0.4 -0.04 0.68 -0.48 0.68 l-2.58 0 c-0.32 0 -0.54 -0.12 -0.68 -0.48 l-1.98 -5.38 l-12.84 0 l-1.98 5.38 c-0.14 0.36 -0.36 0.48 -0.68 0.48 l-2.58 0 c-0.44 0 -0.64 -0.28 -0.48 -0.68 l10.16 -26.84 c0.12 -0.32 0.4 -0.48 0.72 -0.48 l2.52 0 c0.32 0 0.6 0.16 0.72 0.48 z M101.173 30.84 l10.4 0 l-5.2 -14.16 z M149.804 25.240000000000002 c0.36 0 0.6 0.24 0.6 0.6 l0 1.58 c0 7.38 -4.84 13.1 -12.8 13.1 c-8.06 0 -14.22 -6.44 -14.22 -14.46 c0 -8 6.2 -14.38 14.16 -14.38 c3.84 0 6.98 1.46 9.54 3.82 c0.28 0.26 0.3 0.56 0.02 0.84 l-1.6 1.7 c-0.28 0.28 -0.56 0.24 -0.84 0 c-1.98 -1.68 -4.22 -2.72 -7.12 -2.72 c-5.74 0 -10.34 4.62 -10.34 10.74 c0 6.14 4.5 10.8 10.4 10.8 c5.36 0 9.04 -3.46 9.2 -8.28 l-8.82 0 c-0.36 0 -0.6 -0.24 -0.6 -0.6 l0 -2.14 c0 -0.36 0.24 -0.6 0.6 -0.6 l11.82 0 z M174.815 36.6 c0.36 0 0.6 0.24 0.6 0.6 l0 2.2 c0 0.36 -0.24 0.6 -0.6 0.6 l-17.1 0 c-0.36 0 -0.6 -0.24 -0.6 -0.6 l0 -26.8 c0 -0.36 0.24 -0.6 0.6 -0.6 l17.06 0 c0.36 0 0.6 0.24 0.6 0.6 l0 2.2 c0 0.36 -0.24 0.6 -0.6 0.6 l-13.92 0 l0 8.3 l12.86 0 c0.36 0 0.6 0.24 0.6 0.6 l0 2.2 c0 0.36 -0.24 0.6 -0.6 0.6 l-12.86 0 l0 9.5 l13.96 0 z M196.906 29.14 l5.36 10.16 c0.22 0.42 0.02 0.7 -0.44 0.7 l-2.64 0 c-0.32 0 -0.54 -0.14 -0.7 -0.44 l-5.16 -9.98 l-0.58 0 l-6.78 0 l0 9.82 c0 0.36 -0.24 0.6 -0.6 0.6 l-2.54 0 c-0.36 0 -0.6 -0.24 -0.6 -0.6 l0 -26.8 c0 -0.36 0.24 -0.6 0.6 -0.6 l9.92 0 c7.38 0 10.08 3.12 10.08 8.78 c0 4.44 -1.66 7.32 -5.92 8.36 z M185.96599999999998 15.399999999999999 l0 10.78 l7.04 0 c3.72 0 6.2 -1 6.2 -5.4 c0 -4.38 -2.48 -5.38 -6.2 -5.38 l-7.04 0 z M246.56799999999998 34.16 l1.6 1.68 c0.28 0.28 0.26 0.58 -0.02 0.84 c-2.56 2.44 -5.7 3.84 -9.54 3.84 c-7.96 0 -14.16 -6.4 -14.16 -14.4 c0 -8.06 6.2 -14.44 14.16 -14.44 c3.84 0 6.98 1.46 9.54 3.82 c0.28 0.26 0.3 0.56 0.02 0.84 l-1.6 1.7 c-0.28 0.28 -0.56 0.24 -0.84 0 c-1.98 -1.68 -4.22 -2.72 -7.12 -2.72 c-5.74 0 -10.34 4.62 -10.34 10.8 c0 6.12 4.6 10.74 10.34 10.74 c2.9 0 5.14 -1.02 7.12 -2.72 c0.28 -0.24 0.56 -0.26 0.84 0.02 z M269.459 29.14 l5.36 10.16 c0.22 0.42 0.02 0.7 -0.44 0.7 l-2.64 0 c-0.32 0 -0.54 -0.14 -0.7 -0.44 l-5.16 -9.98 l-0.58 0 l-6.78 0 l0 9.82 c0 0.36 -0.24 0.6 -0.6 0.6 l-2.54 0 c-0.36 0 -0.6 -0.24 -0.6 -0.6 l0 -26.8 c0 -0.36 0.24 -0.6 0.6 -0.6 l9.92 0 c7.38 0 10.08 3.12 10.08 8.78 c0 4.44 -1.66 7.32 -5.92 8.36 z M258.519 15.399999999999999 l0 10.78 l7.04 0 c3.72 0 6.2 -1 6.2 -5.4 c0 -4.38 -2.48 -5.38 -6.2 -5.38 l-7.04 0 z M295.03 40.52 c-7.92 0 -14.34 -6.4 -14.34 -14.4 c0 -8.04 6.42 -14.44 14.34 -14.44 c7.9 0 14.32 6.4 14.32 14.44 c0 8 -6.42 14.4 -14.32 14.4 z M295.03 36.98 c5.94 0 10.64 -4.8 10.64 -10.86 c0 -6.1 -4.7 -10.9 -10.64 -10.9 c-5.96 0 -10.66 4.8 -10.66 10.9 c0 6.06 4.7 10.86 10.66 10.86 z M326.58099999999996 12 c7.38 0 10.08 3.12 10.08 8.78 c0 5.68 -2.7 8.8 -10.08 8.8 l-6.78 0 l0 9.82 c0 0.36 -0.24 0.6 -0.6 0.6 l-2.54 0 c-0.36 0 -0.6 -0.24 -0.6 -0.6 l0 -26.8 c0 -0.36 0.24 -0.6 0.6 -0.6 l9.92 0 z M326.84099999999995 26.18 c3.72 0 6.2 -1 6.2 -5.4 c0 -4.38 -2.48 -5.38 -6.2 -5.38 l-7.04 0 l0 10.78 l7.04 0 z M351.4719999999999 24.02 c5.44 1.12 10.42 2.74 10.42 8.66 c0 4.8 -3.22 7.92 -10.3 7.92 c-6.06 0 -9.7 -2.24 -10.12 -6.84 c-0.04 -0.4 0.2 -0.72 0.56 -0.72 l2.44 0 c0.36 0 0.56 0.28 0.6 0.6 c0.34 2.2 2.66 3.56 6.52 3.56 c4.26 0 6.62 -1.44 6.62 -4.48 c0 -3.54 -2.46 -4.3 -6.74 -5.3 c-5.08 -1.16 -9.36 -2.9 -9.36 -8.32 c0 -4.52 3.06 -7.44 9.24 -7.44 c5.72 0 9.24 2.18 9.7 6.7 c0.04 0.4 -0.2 0.6 -0.56 0.6 l-2.26 0 c-0.36 0 -0.56 -0.16 -0.6 -0.48 c-0.3 -2.04 -2.52 -3.48 -6.26 -3.48 c-3.44 0 -5.66 1.4 -5.66 4.1 c0 2.72 1.82 4.1 5.76 4.92 z"/></g><g id="SvgjsG1180" featureKey="sloganFeature-0" transform="matrix(0.5624172545306113,0,0,0.5624172545306113,29.966254795773853,152.2666737905875)" fill="#000"><path d="M8.14 20 l-1.1 -4.42 l-4.88 0 l-1.1 4.42 l-1 0 l4.14 -15 l0.86 0 l4.12 15 l-1.04 0 z M4.66 5.9399999999999995 l-2.26 8.68 l4.38 0 z M15.638499999999999 20.18 c-1.2667 0 -2.2134 -0.33334 -2.84 -1 s-0.94 -1.6533 -0.94 -2.96 l0 -7.4 c0 -1.3333 0.31334 -2.3266 0.94 -2.98 s1.64 -0.98 3.04 -0.98 c1.32 0 2.2866 0.33 2.9 0.99 s0.92 1.6367 0.92 2.93 l0 1.08 l-1.08 0 l0 -1.28 c0 -0.33334 -0.04 -0.67 -0.12 -1.01 s-0.22334 -0.65 -0.43 -0.93 s-0.49 -0.50666 -0.85 -0.68 s-0.82 -0.26 -1.38 -0.26 s-1.0233 0.07666 -1.39 0.23 s-0.66 0.37 -0.88 0.65 s-0.37666 0.61 -0.47 0.99 s-0.14 0.79666 -0.14 1.25 l0 7.48 c0 0.46666 0.04666 0.88332 0.14 1.25 s0.25 0.67666 0.47 0.93 s0.50666 0.44668 0.86 0.58002 s0.78334 0.2 1.29 0.2 c0.56 0 1.0267 -0.07 1.4 -0.21 s0.67334 -0.33666 0.9 -0.59 s0.39 -0.56 0.49 -0.92 s0.15 -0.75334 0.15 -1.18 l0 -2.94 l-3.14 -0.02 l0 -0.98 l4.18 0.02 l0 3.78 c0 1.32 -0.30666 2.31 -0.92 2.97 s-1.6467 0.99 -3.1 0.99 z M30.397000000000002 20 l-3.3 -6.22 l-3.06 0 l0 6.22 l-0.98 0 l0 -15 l3.4 0 c0.78666 0 1.46 0.11666 2.02 0.35 s1.02 0.55 1.38 0.95 s0.62666 0.86334 0.8 1.39 s0.26 1.0767 0.26 1.65 c0 0.97334 -0.25 1.85 -0.75 2.63 s-1.1567 1.35 -1.97 1.71 l3.52 6.32 l-1.32 0 z M26.317 5.92 l-2.28 -0.000019531 l0 6.84 l2.42 0 c0.68 0 1.24 -0.10334 1.68 -0.31 s0.78334 -0.47332 1.03 -0.79998 s0.42 -0.7 0.52 -1.12 s0.15 -0.85 0.15 -1.29 c0 -0.46666 -0.08 -0.9 -0.24 -1.3 s-0.39 -0.75 -0.69 -1.05 s-0.66666 -0.53666 -1.1 -0.71 s-0.93 -0.26 -1.49 -0.26 z M35.075500000000005 20 l0 -15 l1.28 0 l0 15 l-1.28 0 z M47.254000000000005 16.22 c-0.01334 0.66666 -0.076582 1.25 -0.18992 1.75 s-0.30668 0.91334 -0.58002 1.24 s-0.63334 0.57 -1.08 0.73 s-1.01 0.24 -1.69 0.24 c-1.1733 0 -2.0266 -0.32666 -2.56 -0.98 s-0.8 -1.6467 -0.8 -2.98 l0 -7.4 c0 -1.3333 0.27 -2.3266 0.81 -2.98 s1.4633 -0.98 2.77 -0.98 c1.1733 0 2.0134 0.32666 2.52 0.98 s0.77332 1.6467 0.79998 2.98 l0.02 0.92 l-0.92 0 l-0.02 -1.16 c0 -0.33334 -0.03334 -0.67 -0.1 -1.01 s-0.18666 -0.65 -0.36 -0.93 s-0.41668 -0.50666 -0.73002 -0.68 s-0.73 -0.26 -1.25 -0.26 c-0.50666 0 -0.93 0.08 -1.27 0.24 s-0.61 0.38 -0.81 0.66 s-0.33666 0.61 -0.41 0.99 s-0.11 0.79 -0.11 1.23 l0.04 7.5 c0 0.92 0.17 1.64 0.51 2.16 s0.96334 0.78 1.87 0.78 c0.52 0 0.95 -0.07 1.29 -0.21 s0.60666 -0.33666 0.8 -0.59 s0.33 -0.56 0.41 -0.92 s0.12 -0.75334 0.12 -1.18 l0.02 -1.3 l0.92 0 z M55.13250000000001 20.18 c-1.2267 0 -2.1768 -0.33336 -2.85 -1 s-1.01 -1.6533 -1.01 -2.96 l0 -11.22 l1.08 0 l0 11.16 c0 0.32 0.04334 0.65666 0.13 1.01 s0.23666 0.67334 0.45 0.96 s0.49668 0.52332 0.85002 0.70998 s0.79 0.28 1.31 0.28 c0.57334 0 1.0467 -0.08334 1.42 -0.25 s0.67334 -0.39666 0.9 -0.69 s0.38666 -0.64 0.48 -1.04 s0.14 -0.82666 0.14 -1.28 l0 -10.86 l1.06 0 l0 11.22 c0 1.3333 -0.32334 2.3266 -0.97 2.98 s-1.6433 0.98 -2.99 0.98 z M63.09100000000001 20 l0 -15 l1.08 0 l0 13.92 l5.1 0 l0 1.08 l-6.18 0 z M75.38950000000001 6.1 l0 13.9 l-1.16 0 l0 -13.9 l-3.26 0 l0 -1.1 l7.68 0 l0 1.1 l-3.26 0 z M85.94800000000001 20.18 c-1.2267 0 -2.1768 -0.33336 -2.85 -1 s-1.01 -1.6533 -1.01 -2.96 l0 -11.22 l1.08 0 l0 11.16 c0 0.32 0.04334 0.65666 0.13 1.01 s0.23666 0.67334 0.45 0.96 s0.49668 0.52332 0.85002 0.70998 s0.79 0.28 1.31 0.28 c0.57334 0 1.0467 -0.08334 1.42 -0.25 s0.67334 -0.39666 0.9 -0.69 s0.38666 -0.64 0.48 -1.04 s0.14 -0.82666 0.14 -1.28 l0 -10.86 l1.06 0 l0 11.22 c0 1.3333 -0.32334 2.3266 -0.97 2.98 s-1.6433 0.98 -2.99 0.98 z M101.24650000000001 20 l-3.3 -6.22 l-3.06 0 l0 6.22 l-0.98 0 l0 -15 l3.4 0 c0.78666 0 1.46 0.11666 2.02 0.35 s1.02 0.55 1.38 0.95 s0.62666 0.86334 0.8 1.39 s0.26 1.0767 0.26 1.65 c0 0.97334 -0.25 1.85 -0.75 2.63 s-1.1567 1.35 -1.97 1.71 l3.52 6.32 l-1.32 0 z M97.16650000000001 5.92 l-2.28 -0.000019531 l0 6.84 l2.42 0 c0.68 0 1.24 -0.10334 1.68 -0.31 s0.78334 -0.47332 1.03 -0.79998 s0.42 -0.7 0.52 -1.12 s0.15 -0.85 0.15 -1.29 c0 -0.46666 -0.08 -0.9 -0.24 -1.3 s-0.39 -0.75 -0.69 -1.05 s-0.66666 -0.53666 -1.1 -0.71 s-0.93 -0.26 -1.49 -0.26 z M113.64500000000001 20 l-1.1 -4.42 l-4.88 0 l-1.1 4.42 l-1 0 l4.14 -15 l0.86 0 l4.12 15 l-1.04 0 z M110.165 5.9399999999999995 l-2.26 8.68 l4.38 0 z M123.802 20 l0 -15 l7.36 0 l0 1.16 l-6.32 0 l0 5.7 l6.26 0 l0 0.92 l-6.26 0 l0 6.06 l6.46 0 l0 1.16 l-7.5 0 z M141.54050000000004 20 l-5.8 -12.88 l0 12.88 l-1.1 0 l0 -15 l1.18 0 l5.8 12.3 l0.14 -12.3 l1.08 0 l0 15 l-1.3 0 z M156.65750000000003 6.1 l0 13.9 l-1.16 0 l0 -13.9 l-3.26 0 l0 -1.1 l7.68 0 l0 1.1 l-3.26 0 z M167.21600000000007 20.18 c-1.2267 0 -2.1768 -0.33336 -2.85 -1 s-1.01 -1.6533 -1.01 -2.96 l0 -11.22 l1.08 0 l0 11.16 c0 0.32 0.04334 0.65666 0.13 1.01 s0.23666 0.67334 0.45 0.96 s0.49668 0.52332 0.85002 0.70998 s0.79 0.28 1.31 0.28 c0.57334 0 1.0467 -0.08334 1.42 -0.25 s0.67334 -0.39666 0.9 -0.69 s0.38666 -0.64 0.48 -1.04 s0.14 -0.82666 0.14 -1.28 l0 -10.86 l1.06 0 l0 11.22 c0 1.3333 -0.32334 2.3266 -0.97 2.98 s-1.6433 0.98 -2.99 0.98 z M179.07450000000006 20.18 c-0.65334 0 -1.2335 -0.086738 -1.7401 -0.26008 s-0.93332 -0.45 -1.28 -0.83 s-0.60332 -0.87666 -0.76998 -1.49 s-0.23666 -1.3533 -0.21 -2.22 l1.2 0 c0 0.42666 0.02 0.87 0.06 1.33 s0.14666 0.88 0.32 1.26 s0.43668 0.69 0.79002 0.93 s0.84334 0.36 1.47 0.36 c0.53334 0 0.98668 -0.08 1.36 -0.24 s0.67668 -0.37334 0.91002 -0.64 s0.39668 -0.58 0.49002 -0.94 s0.14 -0.73334 0.14 -1.12 c0 -0.45334 -0.08334 -0.85 -0.25 -1.19 s-0.38666 -0.64334 -0.66 -0.91 s-0.59334 -0.50332 -0.96 -0.70998 s-0.75 -0.39 -1.15 -0.55 c-0.64 -0.25334 -1.2 -0.50334 -1.68 -0.75 s-0.87334 -0.52332 -1.18 -0.82998 s-0.53666 -0.66332 -0.69 -1.07 s-0.23 -0.90332 -0.23 -1.49 c0 -1.3333 0.35 -2.3266 1.05 -2.98 s1.7033 -0.98 3.01 -0.98 c1.1333 0 2.03 0.33 2.69 0.99 s0.99 1.65 0.99 2.97 l0 1.1 l-1.12 0 l0 -1.2 c0 -0.41334 -0.05 -0.79668 -0.15 -1.15 s-0.25666 -0.66334 -0.47 -0.93 s-0.48334 -0.47666 -0.81 -0.63 s-0.71666 -0.23 -1.17 -0.23 c-1.0667 0 -1.83 0.28 -2.29 0.84 s-0.67 1.3133 -0.63 2.26 c0.01334 0.41334 0.09 0.76668 0.23 1.06 s0.32666 0.55 0.56 0.77 s0.51334 0.41666 0.84 0.59 s0.69 0.34668 1.09 0.52002 c0.46666 0.2 0.93 0.41334 1.39 0.64 s0.89 0.50666 1.29 0.84 c0.4 0.34666 0.73 0.75 0.99 1.21 s0.39 1.03 0.39 1.71 c0 1.32 -0.33666 2.31 -1.01 2.97 s-1.61 0.99 -2.81 0.99 z M201.23150000000007 20 l0 -12.72 l-3.62 8.66 l-1.12 -0.02 l-3.54 -8.66 l0 12.74 l-0.98 0 l0 -15 l1.04 0 l4.06 9.76 l4.08 -9.76 l1.06 0 l0 15 l-0.98 0 z M213.57000000000005 20 l-1.1 -4.42 l-4.88 0 l-1.1 4.42 l-1 0 l4.14 -15 l0.86 0 l4.12 15 l-1.04 0 z M210.09000000000006 5.9399999999999995 l-2.26 8.68 l4.38 0 z M224.82850000000008 20 l-5.8 -12.88 l0 12.88 l-1.1 0 l0 -15 l1.18 0 l5.8 12.3 l0.14 -12.3 l1.08 0 l0 15 l-1.3 0 z M233.60700000000006 20.18 c-2.52 0 -3.78 -1.32 -3.78 -3.96 l0 -7.4 c0 -1.3333 0.31666 -2.3266 0.95 -2.98 s1.6567 -0.98 3.07 -0.98 c1.2933 0 2.25 0.33 2.87 0.99 s0.93 1.6367 0.93 2.93 l0 7.44 c0 0.66666 -0.07 1.2467 -0.21 1.74 s-0.37 0.90668 -0.69 1.24 s-0.73666 0.58 -1.25 0.74 s-1.1433 0.24 -1.89 0.24 z M236.58700000000005 8.76 c0 -0.33334 -0.04664 -0.67338 -0.13998 -1.02 s-0.24668 -0.66332 -0.46002 -0.94998 s-0.49668 -0.52 -0.85002 -0.7 s-0.79 -0.27 -1.31 -0.27 c-0.57334 0 -1.05 0.08 -1.43 0.24 s-0.68 0.38334 -0.9 0.67 s-0.37666 0.62332 -0.47 1.01 s-0.14 0.80666 -0.14 1.26 l0 7.1 c0 0.34666 0.04 0.7 0.12 1.06 s0.22334 0.69 0.43 0.99 s0.48666 0.54666 0.84 0.74 s0.79668 0.29 1.33 0.29 c0.57334 0 1.05 -0.07666 1.43 -0.23 s0.68334 -0.36334 0.91 -0.63 s0.39 -0.58332 0.49 -0.94998 s0.15 -0.76332 0.15 -1.19 l0 -7.42 z M245.16550000000007 20.18 c-0.65334 0 -1.2335 -0.086738 -1.7401 -0.26008 s-0.93332 -0.45 -1.28 -0.83 s-0.60332 -0.87666 -0.76998 -1.49 s-0.23666 -1.3533 -0.21 -2.22 l1.2 0 c0 0.42666 0.02 0.87 0.06 1.33 s0.14666 0.88 0.32 1.26 s0.43668 0.69 0.79002 0.93 s0.84334 0.36 1.47 0.36 c0.53334 0 0.98668 -0.08 1.36 -0.24 s0.67668 -0.37334 0.91002 -0.64 s0.39668 -0.58 0.49002 -0.94 s0.14 -0.73334 0.14 -1.12 c0 -0.45334 -0.08334 -0.85 -0.25 -1.19 s-0.38666 -0.64334 -0.66 -0.91 s-0.59334 -0.50332 -0.96 -0.70998 s-0.75 -0.39 -1.15 -0.55 c-0.64 -0.25334 -1.2 -0.50334 -1.68 -0.75 s-0.87334 -0.52332 -1.18 -0.82998 s-0.53666 -0.66332 -0.69 -1.07 s-0.23 -0.90332 -0.23 -1.49 c0 -1.3333 0.35 -2.3266 1.05 -2.98 s1.7033 -0.98 3.01 -0.98 c1.1333 0 2.03 0.33 2.69 0.99 s0.99 1.65 0.99 2.97 l0 1.1 l-1.12 0 l0 -1.2 c0 -0.41334 -0.05 -0.79668 -0.15 -1.15 s-0.25666 -0.66334 -0.47 -0.93 s-0.48334 -0.47666 -0.81 -0.63 s-0.71666 -0.23 -1.17 -0.23 c-1.0667 0 -1.83 0.28 -2.29 0.84 s-0.67 1.3133 -0.63 2.26 c0.01334 0.41334 0.09 0.76668 0.23 1.06 s0.32666 0.55 0.56 0.77 s0.51334 0.41666 0.84 0.59 s0.69 0.34668 1.09 0.52002 c0.46666 0.2 0.93 0.41334 1.39 0.64 s0.89 0.50666 1.29 0.84 c0.4 0.34666 0.73 0.75 0.99 1.21 s0.39 1.03 0.39 1.71 c0 1.32 -0.33666 2.31 -1.01 2.97 s-1.61 0.99 -2.81 0.99 z"/></g>
			</g>
		</svg>
	